<svg width="30" height="26" viewBox="0 0 30 26" fill="none" xmlns="http://www.w3.org/2000/svg">
<path d="M2 10.2167H5.25V18.7167H3C2.80109 18.7167 2.61032 18.7957 2.46967 18.9363C2.32902 19.077 2.25 19.2678 2.25 19.4667C2.25 19.6656 2.32902 19.8563 2.46967 19.997C2.61032 20.1376 2.80109 20.2167 3 20.2167H27C27.1989 20.2167 27.3897 20.1376 27.5303 19.997C27.671 19.8563 27.75 19.6656 27.75 19.4667C27.75 19.2678 27.671 19.077 27.5303 18.9363C27.3897 18.7957 27.1989 18.7167 27 18.7167H24.75V10.2167H28C28.1633 10.2165 28.322 10.1632 28.4522 10.0646C28.5823 9.96607 28.6768 9.82774 28.7212 9.67065C28.7656 9.51355 28.7575 9.34625 28.6982 9.19415C28.6389 9.04206 28.5315 8.91347 28.3925 8.82791L15.3925 0.827914C15.2744 0.755398 15.1386 0.71701 15 0.71701C14.8614 0.71701 14.7256 0.755398 14.6075 0.827914L1.6075 8.82791C1.46846 8.91347 1.36114 9.04206 1.30182 9.19415C1.2425 9.34625 1.23443 9.51355 1.27883 9.67065C1.32323 9.82774 1.41768 9.96607 1.54784 10.0646C1.67799 10.1632 1.83675 10.2165 2 10.2167ZM6.75 10.2167H11.25V18.7167H6.75V10.2167ZM17.25 10.2167V18.7167H12.75V10.2167H17.25ZM23.25 18.7167H18.75V10.2167H23.25V18.7167ZM15 2.34166L25.35 8.71666H4.65L15 2.34166ZM29.75 24.5333C29.75 24.7322 29.671 24.923 29.5303 25.0637C29.3897 25.2043 29.1989 25.8167 29 25.8167H1C0.801088 25.8167 0.610322 25.2043 0.46967 25.0637C0.329018 24.923 0.25 24.7322 0.25 24.5333C0.25 24.3344 0.329018 24.1437 0.46967 24.003C0.610322 23.8623 0.801088 23.7833 1 23.7833H29C29.1989 23.7833 29.3897 23.8623 29.5303 24.003C29.671 24.1437 29.75 24.3344 29.75 24.5333Z" fill="#E2C6B0"/>
</svg>
