<svg width="224" height="33" viewBox="0 0 224 33" fill="none" xmlns="http://www.w3.org/2000/svg">
<path d="M2 13.2167H5.25V21.7167H3C2.80109 21.7167 2.61032 21.7957 2.46967 21.9363C2.32902 22.077 2.25 22.2678 2.25 22.4667C2.25 22.6656 2.32902 22.8563 2.46967 22.997C2.61032 23.1376 2.80109 23.2167 3 23.2167H27C27.1989 23.2167 27.3897 23.1376 27.5303 22.997C27.671 22.8563 27.75 22.6656 27.75 22.4667C27.75 22.2678 27.671 22.077 27.5303 21.9363C27.3897 21.7957 27.1989 21.7167 27 21.7167H24.75V13.2167H28C28.1633 13.2165 28.322 13.1632 28.4522 13.0646C28.5823 12.9661 28.6768 12.8277 28.7212 12.6706C28.7656 12.5135 28.7575 12.3462 28.6982 12.1942C28.6389 12.0421 28.5315 11.9135 28.3925 11.8279L15.3925 3.82791C15.2744 3.7554 15.1386 3.71701 15 3.71701C14.8614 3.71701 14.7256 3.7554 14.6075 3.82791L1.6075 11.8279C1.46846 11.9135 1.36114 12.0421 1.30182 12.1942C1.2425 12.3462 1.23443 12.5135 1.27883 12.6706C1.32323 12.8277 1.41768 12.9661 1.54784 13.0646C1.67799 13.1632 1.83675 13.2165 2 13.2167ZM6.75 13.2167H11.25V21.7167H6.75V13.2167ZM17.25 13.2167V21.7167H12.75V13.2167H17.25ZM23.25 21.7167H18.75V13.2167H23.25V21.7167ZM15 5.34166L25.35 11.7167H4.65L15 5.34166ZM29.75 27.5333C29.75 27.7322 29.671 27.923 29.5303 28.0637C29.3897 28.2043 29.1989 28.8167 29 28.8167H1C0.801088 28.8167 0.610322 28.2043 0.46967 28.0637C0.329018 27.923 0.25 27.7322 0.25 27.5333C0.25 27.3344 0.329018 27.1437 0.46967 27.003C0.610322 26.8623 0.801088 26.7833 1 26.7833H29C29.1989 26.7833 29.3897 26.8623 29.5303 27.003C29.671 27.1437 29.75 27.3344 29.75 27.5333Z" fill="#E2C6B0"/>
<path d="M43.736 13V12.056H43.912C44.1467 12.056 44.3547 12.04 44.536 12.008C44.728 11.976 44.8773 11.9173 44.984 11.832C45.0907 11.7467 45.144 11.6293 45.144 11.48V3.16C45.144 3 45.0907 2.88267 44.984 2.808C44.8773 2.72267 44.728 2.664 44.536 2.632C44.3547 2.6 44.1467 2.584 43.912 2.584H43.736V1.64H48.104L51.016 11.032L50.648 10.76L53.608 1.64H57.88V2.584H57.704C57.4693 2.584 57.256 2.6 57.064 2.632C56.8827 2.664 56.7387 2.72267 56.632 2.808C56.5253 2.88267 56.472 3 56.472 3.16V11.48C56.472 11.6293 56.5253 11.7467 56.632 11.832C56.7387 11.9173 56.8827 11.976 57.064 12.008C57.256 12.04 57.4693 12.056 57.704 12.056H57.88V13H53.208V12.056H53.352C53.512 12.056 53.6773 12.0507 53.848 12.04C54.0293 12.0293 54.1787 12.0133 54.296 11.992C54.424 11.96 54.488 11.928 54.488 11.896V1.992L54.648 1.96L50.984 13.032H49.8L46.136 1.96H46.312V11.896C46.312 11.928 46.376 11.96 46.504 11.992C46.632 12.0133 46.7867 12.0293 46.968 12.04C47.1493 12.0507 47.3147 12.056 47.464 12.056H47.528V13H43.736ZM62.3716 4.552V10.472C62.3716 10.8027 62.409 11.0747 62.4836 11.288C62.5583 11.5013 62.6863 11.6613 62.8676 11.768C63.049 11.8747 63.289 11.928 63.5876 11.928C63.897 11.928 64.1956 11.8587 64.4836 11.72C64.7823 11.5813 65.0703 11.3733 65.3476 11.096C65.6356 10.8187 65.913 10.472 66.1796 10.056V11.144C65.9023 11.5813 65.5983 11.9493 65.2676 12.248C64.9476 12.5467 64.5956 12.776 64.2116 12.936C63.8383 13.0853 63.4276 13.16 62.9796 13.16C62.4676 13.16 62.0196 13.0693 61.6356 12.888C61.2623 12.696 60.9743 12.4133 60.7716 12.04C60.569 11.656 60.4676 11.1867 60.4676 10.632V6.152C60.4676 5.93867 60.377 5.78933 60.1956 5.704C60.025 5.61867 59.7583 5.54933 59.3956 5.496L59.1876 5.464V4.552H62.3716ZM67.7636 4.552V11.496C67.7636 11.6347 67.8116 11.7467 67.9076 11.832C68.0036 11.9067 68.137 11.9653 68.3076 12.008C68.4783 12.04 68.681 12.0667 68.9156 12.088L69.0116 12.104V13H66.1156L65.9716 11.16L65.8596 11.048V6.152C65.8596 5.93867 65.7636 5.78933 65.5716 5.704C65.3903 5.608 65.1076 5.53867 64.7236 5.496L64.3876 5.464V4.552H67.7636ZM75.5901 10.824C75.5901 10.5893 75.5315 10.3973 75.4141 10.248C75.2968 10.0987 75.1368 9.976 74.9341 9.88C74.7421 9.784 74.5181 9.704 74.2621 9.64C74.0061 9.56533 73.7341 9.496 73.4461 9.432C73.1048 9.34667 72.7635 9.25067 72.4221 9.144C72.0915 9.03733 71.7875 8.89333 71.5101 8.712C71.2328 8.52 71.0088 8.28 70.8381 7.992C70.6675 7.704 70.5821 7.336 70.5821 6.888C70.5821 6.36533 70.7155 5.91733 70.9821 5.544C71.2488 5.16 71.6275 4.872 72.1181 4.68C72.6195 4.47733 73.2115 4.376 73.8941 4.376C74.4381 4.376 74.9128 4.41333 75.3181 4.488C75.7235 4.552 76.0541 4.632 76.3101 4.728C76.5768 4.824 76.7688 4.91467 76.8861 5V6.888H75.2861V5.336C75.4141 5.32533 75.5208 5.34133 75.6061 5.384C75.6915 5.416 75.7501 5.464 75.7821 5.528C75.8248 5.592 75.8515 5.672 75.8621 5.768C75.8728 5.85333 75.8675 5.95467 75.8461 6.072C75.7181 5.92267 75.5581 5.8 75.3661 5.704C75.1741 5.59733 74.9555 5.52267 74.7101 5.48C74.4648 5.42667 74.1928 5.4 73.8941 5.4C73.3395 5.4 72.9288 5.50667 72.6621 5.72C72.4061 5.92267 72.2781 6.20533 72.2781 6.568C72.2781 6.80267 72.3368 7 72.4541 7.16C72.5715 7.30933 72.7315 7.432 72.9341 7.528C73.1368 7.624 73.3715 7.70933 73.6381 7.784C73.9048 7.85867 74.1875 7.93333 74.4861 8.008C74.8275 8.08267 75.1688 8.17867 75.5101 8.296C75.8515 8.40267 76.1608 8.54667 76.4381 8.728C76.7155 8.90933 76.9341 9.144 77.0941 9.432C77.2648 9.72 77.3501 10.0827 77.3501 10.52C77.3501 11.0533 77.2115 11.5227 76.9341 11.928C76.6675 12.3227 76.2675 12.632 75.7341 12.856C75.2115 13.0693 74.5608 13.176 73.7821 13.176C73.2275 13.176 72.7315 13.1333 72.2941 13.048C71.8568 12.9733 71.4728 12.8773 71.1421 12.76C70.8221 12.632 70.5501 12.4987 70.3261 12.36V10.344H71.9581V12.44C71.7875 12.3547 71.6541 12.264 71.5581 12.168C71.4621 12.072 71.3928 11.976 71.3501 11.88C71.3181 11.784 71.3075 11.6933 71.3181 11.608C71.3395 11.5227 71.3715 11.4427 71.4141 11.368C71.5741 11.528 71.7715 11.6667 72.0061 11.784C72.2408 11.8907 72.5075 11.976 72.8061 12.04C73.1048 12.104 73.4301 12.136 73.7821 12.136C74.1768 12.136 74.5075 12.088 74.7741 11.992C75.0408 11.896 75.2435 11.752 75.3821 11.56C75.5208 11.3573 75.5901 11.112 75.5901 10.824ZM80.818 8.84C80.818 9.40533 80.882 9.896 81.01 10.312C81.138 10.7173 81.3193 11.0533 81.554 11.32C81.7887 11.5867 82.066 11.784 82.386 11.912C82.7167 12.0293 83.0793 12.088 83.474 12.088C83.9007 12.088 84.2687 12.0133 84.578 11.864C84.8873 11.7147 85.154 11.5227 85.378 11.288C85.6127 11.0427 85.8047 10.7867 85.954 10.52L86.834 11.208C86.6207 11.5813 86.3487 11.9227 86.018 12.232C85.6873 12.5307 85.298 12.7653 84.85 12.936C84.4127 13.096 83.9007 13.176 83.314 13.176C82.4607 13.176 81.698 13.0053 81.026 12.664C80.3647 12.3227 79.842 11.8267 79.458 11.176C79.0847 10.5253 78.898 9.74133 78.898 8.824C78.898 7.93867 79.074 7.16533 79.426 6.504C79.7887 5.832 80.2793 5.31467 80.898 4.952C81.5273 4.57867 82.2367 4.392 83.026 4.392C83.666 4.392 84.226 4.49333 84.706 4.696C85.186 4.888 85.5807 5.18667 85.89 5.592C86.21 5.99733 86.45 6.49867 86.61 7.096C86.7807 7.69333 86.8713 8.39733 86.882 9.208H80.418V8.216H85.41L84.994 8.6C84.9833 8.024 84.9353 7.53333 84.85 7.128C84.7753 6.72267 84.658 6.39733 84.498 6.152C84.3487 5.90667 84.1513 5.73067 83.906 5.624C83.6713 5.50667 83.3833 5.448 83.042 5.448C82.722 5.448 82.4233 5.51733 82.146 5.656C81.8687 5.79467 81.6287 6.00267 81.426 6.28C81.234 6.55733 81.0847 6.90933 80.978 7.336C80.8713 7.76267 80.818 8.264 80.818 8.84ZM91.3472 4.552V10.472C91.3472 10.8027 91.3846 11.0747 91.4592 11.288C91.5339 11.5013 91.6619 11.6613 91.8432 11.768C92.0246 11.8747 92.2646 11.928 92.5632 11.928C92.8726 11.928 93.1712 11.8587 93.4592 11.72C93.7579 11.5813 94.0459 11.3733 94.3232 11.096C94.6112 10.8187 94.8886 10.472 95.1552 10.056V11.144C94.8779 11.5813 94.5739 11.9493 94.2432 12.248C93.9232 12.5467 93.5712 12.776 93.1872 12.936C92.8139 13.0853 92.4032 13.16 91.9552 13.16C91.4432 13.16 90.9952 13.0693 90.6112 12.888C90.2379 12.696 89.9499 12.4133 89.7472 12.04C89.5446 11.656 89.4432 11.1867 89.4432 10.632V6.152C89.4432 5.93867 89.3526 5.78933 89.1712 5.704C89.0006 5.61867 88.7339 5.54933 88.3712 5.496L88.1632 5.464V4.552H91.3472ZM96.7392 4.552V11.496C96.7392 11.6347 96.7872 11.7467 96.8832 11.832C96.9792 11.9067 97.1126 11.9653 97.2832 12.008C97.4539 12.04 97.6566 12.0667 97.8912 12.088L97.9872 12.104V13H95.0912L94.9472 11.16L94.8352 11.048V6.152C94.8352 5.93867 94.7392 5.78933 94.5472 5.704C94.3659 5.608 94.0832 5.53867 93.6992 5.496L93.3632 5.464V4.552H96.7392ZM103.843 13V12.056H104.019C104.254 12.056 104.462 12.04 104.643 12.008C104.835 11.976 104.985 11.9173 105.091 11.832C105.198 11.7467 105.251 11.6293 105.251 11.48V3.16C105.251 3 105.198 2.88267 105.091 2.808C104.985 2.72267 104.835 2.664 104.643 2.632C104.462 2.6 104.254 2.584 104.019 2.584H103.843V1.64H108.211L111.123 11.032L110.755 10.76L113.715 1.64H117.987V2.584H117.811C117.577 2.584 117.363 2.6 117.171 2.632C116.99 2.664 116.846 2.72267 116.739 2.808C116.633 2.88267 116.579 3 116.579 3.16V11.48C116.579 11.6293 116.633 11.7467 116.739 11.832C116.846 11.9173 116.99 11.976 117.171 12.008C117.363 12.04 117.577 12.056 117.811 12.056H117.987V13H113.315V12.056H113.459C113.619 12.056 113.785 12.0507 113.955 12.04C114.137 12.0293 114.286 12.0133 114.403 11.992C114.531 11.96 114.595 11.928 114.595 11.896V1.992L114.755 1.96L111.091 13.032H109.907L106.243 1.96H106.419V11.896C106.419 11.928 106.483 11.96 106.611 11.992C106.739 12.0133 106.894 12.0293 107.075 12.04C107.257 12.0507 107.422 12.056 107.571 12.056H107.635V13H103.843ZM121.473 8.84C121.473 9.40533 121.537 9.896 121.665 10.312C121.793 10.7173 121.974 11.0533 122.209 11.32C122.444 11.5867 122.721 11.784 123.041 11.912C123.372 12.0293 123.734 12.088 124.129 12.088C124.556 12.088 124.924 12.0133 125.233 11.864C125.542 11.7147 125.809 11.5227 126.033 11.288C126.268 11.0427 126.46 10.7867 126.609 10.52L127.489 11.208C127.276 11.5813 127.004 11.9227 126.673 12.232C126.342 12.5307 125.953 12.7653 125.505 12.936C125.068 13.096 124.556 13.176 123.969 13.176C123.116 13.176 122.353 13.0053 121.681 12.664C121.02 12.3227 120.497 11.8267 120.113 11.176C119.74 10.5253 119.553 9.74133 119.553 8.824C119.553 7.93867 119.729 7.16533 120.081 6.504C120.444 5.832 120.934 5.31467 121.553 4.952C122.182 4.57867 122.892 4.392 123.681 4.392C124.321 4.392 124.881 4.49333 125.361 4.696C125.841 4.888 126.236 5.18667 126.545 5.592C126.865 5.99733 127.105 6.49867 127.265 7.096C127.436 7.69333 127.526 8.39733 127.537 9.208H121.073V8.216H126.065L125.649 8.6C125.638 8.024 125.59 7.53333 125.505 7.128C125.43 6.72267 125.313 6.39733 125.153 6.152C125.004 5.90667 124.806 5.73067 124.561 5.624C124.326 5.50667 124.038 5.448 123.697 5.448C123.377 5.448 123.078 5.51733 122.801 5.656C122.524 5.79467 122.284 6.00267 122.081 6.28C121.889 6.55733 121.74 6.90933 121.633 7.336C121.526 7.76267 121.473 8.264 121.473 8.84ZM128.642 5.592V4.632H128.77C129.09 4.632 129.362 4.61067 129.586 4.568C129.81 4.52533 129.976 4.43467 130.082 4.296C130.2 4.15733 130.258 3.96 130.258 3.704L131.522 4.552H134.61V5.592H128.642ZM132.05 10.296C132.05 10.7333 132.109 11.08 132.226 11.336C132.344 11.5813 132.514 11.7573 132.738 11.864C132.962 11.9707 133.229 12.024 133.538 12.024C133.784 12.024 134.013 12.008 134.226 11.976C134.44 11.9333 134.6 11.896 134.706 11.864V12.936C134.6 12.9787 134.461 13.016 134.29 13.048C134.13 13.08 133.954 13.1067 133.762 13.128C133.57 13.16 133.373 13.176 133.17 13.176C132.626 13.176 132.125 13.096 131.666 12.936C131.208 12.776 130.84 12.4933 130.562 12.088C130.285 11.672 130.146 11.0907 130.146 10.344V4.808L130.258 4.68V2.168H132.05V10.296ZM142.273 4.456V6.296C142.199 6.27467 142.103 6.25867 141.985 6.248C141.868 6.22667 141.745 6.216 141.617 6.216C141.5 6.20533 141.383 6.2 141.265 6.2C140.988 6.2 140.737 6.22667 140.513 6.28C140.3 6.33333 140.103 6.41867 139.921 6.536C139.74 6.65333 139.569 6.80267 139.409 6.984C139.249 7.16533 139.084 7.38933 138.913 7.656L138.897 6.856C139.132 6.344 139.377 5.90667 139.633 5.544C139.889 5.17067 140.183 4.888 140.513 4.696C140.844 4.49333 141.228 4.392 141.665 4.392C141.793 4.392 141.911 4.39733 142.017 4.408C142.135 4.41867 142.22 4.43467 142.273 4.456ZM136.081 13V12.152H136.129C136.481 12.152 136.764 12.104 136.977 12.008C137.201 11.9013 137.313 11.6987 137.313 11.4V6.152C137.313 6.01333 137.271 5.90667 137.185 5.832C137.111 5.75733 136.993 5.69867 136.833 5.656C136.673 5.60267 136.476 5.54933 136.241 5.496L136.081 5.464V4.552H138.961L139.105 6.872L139.217 6.776V11.784C139.217 11.8907 139.287 11.9707 139.425 12.024C139.564 12.0773 139.729 12.1147 139.921 12.136C140.113 12.1467 140.284 12.152 140.433 12.152H140.705V13H136.081ZM152.408 8.776C152.408 9.66133 152.221 10.4347 151.848 11.096C151.485 11.7573 150.973 12.2693 150.312 12.632C149.651 12.9947 148.877 13.176 147.992 13.176C147.096 13.176 146.317 12.9947 145.656 12.632C144.995 12.2693 144.477 11.7573 144.104 11.096C143.741 10.4347 143.56 9.66133 143.56 8.776C143.56 8.11467 143.661 7.51733 143.864 6.984C144.077 6.44 144.376 5.976 144.76 5.592C145.155 5.208 145.624 4.91467 146.168 4.712C146.712 4.49867 147.32 4.392 147.992 4.392C148.653 4.392 149.256 4.49867 149.8 4.712C150.344 4.91467 150.808 5.208 151.192 5.592C151.587 5.976 151.885 6.44 152.088 6.984C152.301 7.51733 152.408 8.11467 152.408 8.776ZM145.544 8.776C145.544 9.50133 145.635 10.1147 145.816 10.616C146.008 11.1173 146.285 11.496 146.648 11.752C147.011 11.9973 147.459 12.12 147.992 12.12C148.525 12.12 148.968 11.9973 149.32 11.752C149.683 11.496 149.955 11.1173 150.136 10.616C150.328 10.1147 150.424 9.50133 150.424 8.776C150.424 8.06133 150.328 7.45867 150.136 6.968C149.955 6.47733 149.683 6.104 149.32 5.848C148.968 5.592 148.525 5.464 147.992 5.464C147.459 5.464 147.011 5.592 146.648 5.848C146.285 6.104 146.008 6.47733 145.816 6.968C145.635 7.45867 145.544 8.06133 145.544 8.776ZM158.611 16.568H153.987V15.72H154.019C154.253 15.72 154.456 15.6987 154.627 15.656C154.808 15.6133 154.947 15.5333 155.043 15.416C155.139 15.3093 155.187 15.16 155.187 14.968V6.152C155.187 6.01333 155.149 5.90667 155.075 5.832C155 5.75733 154.883 5.69867 154.723 5.656C154.563 5.60267 154.36 5.54933 154.115 5.496L153.955 5.464V4.552H156.851L156.979 6.616L157.091 6.712V15.576C157.091 15.608 157.155 15.6347 157.283 15.656C157.411 15.6773 157.565 15.6933 157.747 15.704C157.928 15.7147 158.093 15.72 158.243 15.72H158.611V16.568ZM159.763 13.176C159.304 13.176 158.899 13.1067 158.547 12.968C158.195 12.8187 157.869 12.6053 157.571 12.328C157.283 12.04 157.011 11.6933 156.755 11.288L156.787 9.992C157.032 10.4293 157.288 10.8027 157.555 11.112C157.821 11.4107 158.109 11.64 158.419 11.8C158.728 11.9493 159.075 12.024 159.459 12.024C159.821 12.024 160.141 11.9547 160.419 11.816C160.707 11.6667 160.941 11.448 161.123 11.16C161.304 10.872 161.437 10.5253 161.523 10.12C161.619 9.704 161.667 9.23467 161.667 8.712C161.667 8.2 161.624 7.752 161.539 7.368C161.453 6.97333 161.325 6.63733 161.155 6.36C160.984 6.08267 160.765 5.87467 160.499 5.736C160.232 5.59733 159.917 5.528 159.555 5.528C159.16 5.528 158.803 5.608 158.483 5.768C158.163 5.928 157.864 6.168 157.587 6.488C157.309 6.808 157.037 7.20267 156.771 7.672L156.755 6.472C157.032 6.01333 157.32 5.63467 157.619 5.336C157.917 5.02667 158.253 4.792 158.627 4.632C159 4.472 159.427 4.392 159.907 4.392C160.685 4.392 161.352 4.57333 161.907 4.936C162.472 5.29867 162.904 5.80533 163.203 6.456C163.501 7.096 163.651 7.848 163.651 8.712C163.651 9.576 163.491 10.344 163.171 11.016C162.861 11.688 162.413 12.216 161.827 12.6C161.251 12.984 160.563 13.176 159.763 13.176ZM174.204 8.776C174.204 9.66133 174.017 10.4347 173.644 11.096C173.281 11.7573 172.769 12.2693 172.108 12.632C171.447 12.9947 170.673 13.176 169.788 13.176C168.892 13.176 168.113 12.9947 167.452 12.632C166.791 12.2693 166.273 11.7573 165.9 11.096C165.537 10.4347 165.356 9.66133 165.356 8.776C165.356 8.11467 165.457 7.51733 165.66 6.984C165.873 6.44 166.172 5.976 166.556 5.592C166.951 5.208 167.42 4.91467 167.964 4.712C168.508 4.49867 169.116 4.392 169.788 4.392C170.449 4.392 171.052 4.49867 171.596 4.712C172.14 4.91467 172.604 5.208 172.988 5.592C173.383 5.976 173.681 6.44 173.884 6.984C174.097 7.51733 174.204 8.11467 174.204 8.776ZM167.34 8.776C167.34 9.50133 167.431 10.1147 167.612 10.616C167.804 11.1173 168.081 11.496 168.444 11.752C168.807 11.9973 169.255 12.12 169.788 12.12C170.321 12.12 170.764 11.9973 171.116 11.752C171.479 11.496 171.751 11.1173 171.932 10.616C172.124 10.1147 172.22 9.50133 172.22 8.776C172.22 8.06133 172.124 7.45867 171.932 6.968C171.751 6.47733 171.479 6.104 171.116 5.848C170.764 5.592 170.321 5.464 169.788 5.464C169.255 5.464 168.807 5.592 168.444 5.848C168.081 6.104 167.804 6.47733 167.612 6.968C167.431 7.45867 167.34 8.06133 167.34 8.776ZM178.935 0.999999V11.432C178.935 11.72 179.042 11.912 179.255 12.008C179.468 12.104 179.756 12.152 180.119 12.152H180.167V13H175.799V12.152H175.847C176.21 12.152 176.498 12.104 176.711 12.008C176.924 11.912 177.031 11.72 177.031 11.432V2.6C177.031 2.45067 176.994 2.33867 176.919 2.264C176.844 2.18933 176.727 2.13067 176.567 2.088C176.407 2.03467 176.204 1.98667 175.959 1.944L175.799 1.912V0.999999H178.935ZM183.527 3C183.165 3 182.871 2.904 182.647 2.712C182.423 2.52 182.311 2.24267 182.311 1.88C182.311 1.51733 182.423 1.24 182.647 1.048C182.871 0.855999 183.165 0.759999 183.527 0.759999C183.89 0.759999 184.183 0.855999 184.407 1.048C184.631 1.24 184.743 1.51733 184.743 1.88C184.743 2.24267 184.631 2.52 184.407 2.712C184.183 2.904 183.89 3 183.527 3ZM184.567 4.552V11.432C184.567 11.72 184.674 11.912 184.887 12.008C185.111 12.104 185.405 12.152 185.767 12.152H185.799V13H181.447V12.152H181.479C181.842 12.152 182.13 12.104 182.343 12.008C182.567 11.912 182.679 11.72 182.679 11.432V6.152C182.679 5.93867 182.589 5.79467 182.407 5.72C182.237 5.64533 181.965 5.57067 181.591 5.496L181.431 5.464V4.552H184.567ZM186.695 5.592V4.632H186.823C187.143 4.632 187.415 4.61067 187.639 4.568C187.863 4.52533 188.028 4.43467 188.135 4.296C188.252 4.15733 188.311 3.96 188.311 3.704L189.575 4.552H192.663V5.592H186.695ZM190.103 10.296C190.103 10.7333 190.161 11.08 190.279 11.336C190.396 11.5813 190.567 11.7573 190.791 11.864C191.015 11.9707 191.281 12.024 191.591 12.024C191.836 12.024 192.065 12.008 192.279 11.976C192.492 11.9333 192.652 11.896 192.759 11.864V12.936C192.652 12.9787 192.513 13.016 192.343 13.048C192.183 13.08 192.007 13.1067 191.815 13.128C191.623 13.16 191.425 13.176 191.223 13.176C190.679 13.176 190.177 13.096 189.719 12.936C189.26 12.776 188.892 12.4933 188.615 12.088C188.337 11.672 188.199 11.0907 188.199 10.344V4.808L188.311 4.68V2.168H190.103V10.296ZM199.736 7.864V8.776C199.181 8.84 198.701 8.92533 198.296 9.032C197.891 9.128 197.544 9.23467 197.256 9.352C196.979 9.46933 196.76 9.608 196.6 9.768C196.44 9.91733 196.323 10.088 196.248 10.28C196.173 10.4613 196.136 10.664 196.136 10.888C196.136 11.1653 196.189 11.4 196.296 11.592C196.403 11.7733 196.552 11.912 196.744 12.008C196.947 12.0933 197.181 12.136 197.448 12.136C197.768 12.136 198.056 12.0613 198.312 11.912C198.579 11.7627 198.824 11.544 199.048 11.256C199.283 10.9573 199.507 10.5893 199.72 10.152L199.752 11.16C199.549 11.576 199.309 11.9387 199.032 12.248C198.765 12.5467 198.456 12.776 198.104 12.936C197.752 13.096 197.347 13.176 196.888 13.176C196.365 13.176 195.907 13.0907 195.512 12.92C195.117 12.7493 194.808 12.4987 194.584 12.168C194.371 11.8267 194.264 11.416 194.264 10.936C194.264 10.488 194.365 10.104 194.568 9.784C194.781 9.45333 195.112 9.17067 195.56 8.936C196.008 8.69067 196.573 8.48267 197.256 8.312C197.949 8.14133 198.776 7.992 199.736 7.864ZM199.656 13L199.528 11.224L199.416 11.176V6.952C199.416 6.58933 199.363 6.296 199.256 6.072C199.16 5.848 199 5.688 198.776 5.592C198.552 5.496 198.253 5.448 197.88 5.448C197.336 5.448 196.883 5.53867 196.52 5.72C196.168 5.89067 195.901 6.08267 195.72 6.296C195.688 6.2 195.683 6.10933 195.704 6.024C195.725 5.928 195.768 5.83733 195.832 5.752C195.907 5.66667 195.997 5.59733 196.104 5.544C196.211 5.48 196.328 5.43733 196.456 5.416V7.208H194.76V5.32C194.92 5.20267 195.149 5.07467 195.448 4.936C195.747 4.78667 196.109 4.65867 196.536 4.552C196.973 4.44533 197.469 4.392 198.024 4.392C198.493 4.392 198.925 4.44 199.32 4.536C199.715 4.62133 200.056 4.76533 200.344 4.968C200.643 5.17067 200.872 5.43733 201.032 5.768C201.203 6.088 201.288 6.48267 201.288 6.952V11.496C201.288 11.6347 201.336 11.7467 201.432 11.832C201.528 11.9067 201.661 11.9653 201.832 12.008C202.003 12.04 202.205 12.0667 202.44 12.088L202.504 12.104V13H199.656ZM203.688 13V12.152H203.72C203.966 12.152 204.179 12.1307 204.36 12.088C204.542 12.0453 204.68 11.9707 204.776 11.864C204.872 11.7467 204.92 11.592 204.92 11.4V6.152C204.92 6.00267 204.878 5.896 204.792 5.832C204.718 5.75733 204.6 5.69867 204.44 5.656C204.28 5.60267 204.083 5.54933 203.848 5.496L203.688 5.464V4.552H206.584L206.712 6.36L206.824 6.456V12.008C206.824 12.04 206.878 12.0667 206.984 12.088C207.102 12.1093 207.24 12.1253 207.4 12.136C207.56 12.1467 207.704 12.152 207.832 12.152H207.896V13H203.688ZM213.512 13H209.304V12.152H209.352C209.48 12.152 209.624 12.1467 209.784 12.136C209.944 12.1253 210.083 12.1093 210.2 12.088C210.318 12.056 210.376 12.0293 210.376 12.008V7.064C210.376 6.73333 210.334 6.46667 210.248 6.264C210.174 6.05067 210.046 5.89067 209.864 5.784C209.694 5.67733 209.454 5.624 209.144 5.624C208.824 5.624 208.515 5.69333 208.216 5.832C207.918 5.97067 207.624 6.17867 207.336 6.456C207.059 6.73333 206.782 7.08533 206.504 7.512V6.44C206.782 6.00267 207.08 5.62933 207.4 5.32C207.731 5.01067 208.088 4.776 208.472 4.616C208.867 4.456 209.294 4.376 209.752 4.376C210.275 4.376 210.723 4.472 211.096 4.664C211.47 4.84533 211.758 5.128 211.96 5.512C212.174 5.88533 212.28 6.35467 212.28 6.92V11.4C212.28 11.592 212.328 11.7467 212.424 11.864C212.52 11.9707 212.659 12.0453 212.84 12.088C213.022 12.1307 213.23 12.152 213.464 12.152H213.512V13ZM223.733 8.776C223.733 9.66133 223.547 10.4347 223.173 11.096C222.811 11.7573 222.299 12.2693 221.637 12.632C220.976 12.9947 220.203 13.176 219.317 13.176C218.421 13.176 217.643 12.9947 216.981 12.632C216.32 12.2693 215.803 11.7573 215.429 11.096C215.067 10.4347 214.885 9.66133 214.885 8.776C214.885 8.11467 214.987 7.51733 215.189 6.984C215.403 6.44 215.701 5.976 216.085 5.592C216.48 5.208 216.949 4.91467 217.493 4.712C218.037 4.49867 218.645 4.392 219.317 4.392C219.979 4.392 220.581 4.49867 221.125 4.712C221.669 4.91467 222.133 5.208 222.517 5.592C222.912 5.976 223.211 6.44 223.413 6.984C223.627 7.51733 223.733 8.11467 223.733 8.776ZM216.869 8.776C216.869 9.50133 216.96 10.1147 217.141 10.616C217.333 11.1173 217.611 11.496 217.973 11.752C218.336 11.9973 218.784 12.12 219.317 12.12C219.851 12.12 220.293 11.9973 220.645 11.752C221.008 11.496 221.28 11.1173 221.461 10.616C221.653 10.1147 221.749 9.50133 221.749 8.776C221.749 8.06133 221.653 7.45867 221.461 6.968C221.28 6.47733 221.008 6.104 220.645 5.848C220.293 5.592 219.851 5.464 219.317 5.464C218.784 5.464 218.336 5.592 217.973 5.848C217.611 6.104 217.333 6.47733 217.141 6.968C216.96 7.45867 216.869 8.06133 216.869 8.776ZM52.152 30.496C52.152 30.7093 52.2587 30.8533 52.472 30.928C52.6853 31.0027 52.968 31.056 53.32 31.088L53.384 31.104V32H50.488L50.36 30.128L50.264 30.16V21.6C50.264 21.4507 50.2213 21.3387 50.136 21.264C50.0613 21.1893 49.9387 21.1307 49.768 21.088C49.608 21.0347 49.4053 20.9867 49.16 20.944L49 20.912V20H52.152V30.496ZM47.592 23.392C48.0613 23.392 48.4773 23.472 48.84 23.632C49.2133 23.7813 49.544 24.0053 49.832 24.304C50.1307 24.6027 50.4027 24.976 50.648 25.424L50.616 26.656C50.36 26.176 50.0933 25.7813 49.816 25.472C49.5493 25.152 49.2613 24.9173 48.952 24.768C48.6427 24.608 48.2907 24.528 47.896 24.528C47.5333 24.528 47.208 24.6027 46.92 24.752C46.6427 24.9013 46.408 25.12 46.216 25.408C46.0347 25.6853 45.896 26.032 45.8 26.448C45.7147 26.8533 45.672 27.3227 45.672 27.856C45.672 28.3573 45.7147 28.8053 45.8 29.2C45.8853 29.5947 46.0133 29.9307 46.184 30.208C46.3653 30.4747 46.5893 30.6773 46.856 30.816C47.1333 30.9547 47.4533 31.024 47.816 31.024C48.2107 31.024 48.568 30.944 48.888 30.784C49.208 30.624 49.5067 30.384 49.784 30.064C50.072 29.7333 50.3547 29.3173 50.632 28.816L50.648 30C50.3813 30.4587 50.0933 30.8533 49.784 31.184C49.4853 31.504 49.144 31.7493 48.76 31.92C48.3867 32.0907 47.9547 32.176 47.464 32.176C46.6747 32.176 45.9973 31.9947 45.432 31.632C44.8773 31.2693 44.4453 30.7627 44.136 30.112C43.8373 29.4613 43.688 28.7093 43.688 27.856C43.688 26.9813 43.848 26.208 44.168 25.536C44.488 24.864 44.9413 24.3413 45.528 23.968C46.1147 23.584 46.8027 23.392 47.592 23.392ZM56.6624 27.84C56.6624 28.4053 56.7264 28.896 56.8544 29.312C56.9824 29.7173 57.1637 30.0533 57.3984 30.32C57.633 30.5867 57.9104 30.784 58.2304 30.912C58.561 31.0293 58.9237 31.088 59.3184 31.088C59.745 31.088 60.113 31.0133 60.4224 30.864C60.7317 30.7147 60.9984 30.5227 61.2224 30.288C61.457 30.0427 61.649 29.7867 61.7984 29.52L62.6784 30.208C62.465 30.5813 62.193 30.9227 61.8624 31.232C61.5317 31.5307 61.1424 31.7653 60.6944 31.936C60.257 32.096 59.745 32.176 59.1584 32.176C58.305 32.176 57.5424 32.0053 56.8704 31.664C56.209 31.3227 55.6864 30.8267 55.3024 30.176C54.929 29.5253 54.7424 28.7413 54.7424 27.824C54.7424 26.9387 54.9184 26.1653 55.2704 25.504C55.633 24.832 56.1237 24.3147 56.7424 23.952C57.3717 23.5787 58.081 23.392 58.8704 23.392C59.5104 23.392 60.0704 23.4933 60.5504 23.696C61.0304 23.888 61.425 24.1867 61.7344 24.592C62.0544 24.9973 62.2944 25.4987 62.4544 26.096C62.625 26.6933 62.7157 27.3973 62.7264 28.208H56.2624V27.216H61.2544L60.8384 27.6C60.8277 27.024 60.7797 26.5333 60.6944 26.128C60.6197 25.7227 60.5024 25.3973 60.3424 25.152C60.193 24.9067 59.9957 24.7307 59.7504 24.624C59.5157 24.5067 59.2277 24.448 58.8864 24.448C58.5664 24.448 58.2677 24.5173 57.9904 24.656C57.713 24.7947 57.473 25.0027 57.2704 25.28C57.0784 25.5573 56.929 25.9093 56.8224 26.336C56.7157 26.7627 56.6624 27.264 56.6624 27.84ZM71.1406 27.216H75.7166L75.8126 28.224H70.9966L71.1406 27.216ZM73.1886 21.328L73.5246 21.744L70.5326 30.736C70.5326 30.8 70.5913 30.8587 70.7086 30.912C70.8366 30.9547 70.9966 30.992 71.1886 31.024C71.3806 31.0453 71.5833 31.056 71.7966 31.056H72.0046V32H68.3086V31.056H68.3886C68.6766 31.056 68.906 31.008 69.0766 30.912C69.258 30.8053 69.402 30.5867 69.5086 30.256L72.7406 20.576H74.9166L78.2286 30.416C78.3246 30.6827 78.4633 30.8587 78.6446 30.944C78.826 31.0187 79.05 31.056 79.3166 31.056H79.3966V32H74.8526V31.056H75.0766C75.3006 31.056 75.5086 31.0507 75.7006 31.04C75.9033 31.0293 76.0633 31.0133 76.1806 30.992C76.298 30.96 76.3566 30.928 76.3566 30.896L73.1886 21.328ZM86.7046 23.456V25.296C86.63 25.2747 86.534 25.2587 86.4166 25.248C86.2993 25.2267 86.1766 25.216 86.0486 25.216C85.9313 25.2053 85.814 25.2 85.6966 25.2C85.4193 25.2 85.1686 25.2267 84.9446 25.28C84.7313 25.3333 84.534 25.4187 84.3526 25.536C84.1713 25.6533 84.0006 25.8027 83.8406 25.984C83.6806 26.1653 83.5153 26.3893 83.3446 26.656L83.3286 25.856C83.5633 25.344 83.8086 24.9067 84.0646 24.544C84.3206 24.1707 84.614 23.888 84.9446 23.696C85.2753 23.4933 85.6593 23.392 86.0966 23.392C86.2246 23.392 86.342 23.3973 86.4486 23.408C86.566 23.4187 86.6513 23.4347 86.7046 23.456ZM80.5126 32V31.152H80.5606C80.9126 31.152 81.1953 31.104 81.4086 31.008C81.6326 30.9013 81.7446 30.6987 81.7446 30.4V25.152C81.7446 25.0133 81.702 24.9067 81.6166 24.832C81.542 24.7573 81.4246 24.6987 81.2646 24.656C81.1046 24.6027 80.9073 24.5493 80.6726 24.496L80.5126 24.464V23.552H83.3926L83.5366 25.872L83.6486 25.776V30.784C83.6486 30.8907 83.718 30.9707 83.8566 31.024C83.9953 31.0773 84.1606 31.1147 84.3526 31.136C84.5446 31.1467 84.7153 31.152 84.8646 31.152H85.1366V32H80.5126ZM87.8541 24.592V23.632H87.9821C88.3021 23.632 88.5741 23.6107 88.7981 23.568C89.0221 23.5253 89.1875 23.4347 89.2941 23.296C89.4115 23.1573 89.4701 22.96 89.4701 22.704L90.7341 23.552H93.8221V24.592H87.8541ZM91.2621 29.296C91.2621 29.7333 91.3208 30.08 91.4381 30.336C91.5555 30.5813 91.7261 30.7573 91.9501 30.864C92.1741 30.9707 92.4408 31.024 92.7501 31.024C92.9955 31.024 93.2248 31.008 93.4381 30.976C93.6515 30.9333 93.8115 30.896 93.9181 30.864V31.936C93.8115 31.9787 93.6728 32.016 93.5021 32.048C93.3421 32.08 93.1661 32.1067 92.9741 32.128C92.7821 32.16 92.5848 32.176 92.3821 32.176C91.8381 32.176 91.3368 32.096 90.8781 31.936C90.4195 31.776 90.0515 31.4933 89.7741 31.088C89.4968 30.672 89.3581 30.0907 89.3581 29.344V23.808L89.4701 23.68V21.168H91.2621V29.296ZM97.1374 27.84C97.1374 28.4053 97.2014 28.896 97.3294 29.312C97.4574 29.7173 97.6387 30.0533 97.8734 30.32C98.108 30.5867 98.3854 30.784 98.7054 30.912C99.036 31.0293 99.3987 31.088 99.7934 31.088C100.22 31.088 100.588 31.0133 100.897 30.864C101.207 30.7147 101.473 30.5227 101.697 30.288C101.932 30.0427 102.124 29.7867 102.273 29.52L103.153 30.208C102.94 30.5813 102.668 30.9227 102.337 31.232C102.007 31.5307 101.617 31.7653 101.169 31.936C100.732 32.096 100.22 32.176 99.6334 32.176C98.78 32.176 98.0174 32.0053 97.3454 31.664C96.684 31.3227 96.1614 30.8267 95.7774 30.176C95.404 29.5253 95.2174 28.7413 95.2174 27.824C95.2174 26.9387 95.3934 26.1653 95.7454 25.504C96.108 24.832 96.5987 24.3147 97.2174 23.952C97.8467 23.5787 98.556 23.392 99.3454 23.392C99.9854 23.392 100.545 23.4933 101.025 23.696C101.505 23.888 101.9 24.1867 102.209 24.592C102.529 24.9973 102.769 25.4987 102.929 26.096C103.1 26.6933 103.191 27.3973 103.201 28.208H96.7374V27.216H101.729L101.313 27.6C101.303 27.024 101.255 26.5333 101.169 26.128C101.095 25.7227 100.977 25.3973 100.817 25.152C100.668 24.9067 100.471 24.7307 100.225 24.624C99.9907 24.5067 99.7027 24.448 99.3614 24.448C99.0414 24.448 98.7427 24.5173 98.4654 24.656C98.188 24.7947 97.948 25.0027 97.7454 25.28C97.5534 25.5573 97.404 25.9093 97.2974 26.336C97.1907 26.7627 97.1374 27.264 97.1374 27.84Z" fill="#E2C6B0"/>
</svg>
